<?xml version="1.0" encoding="utf-8"?>
<!-- Generator: Adobe Illustrator 16.0.0, SVG Export Plug-In . SVG Version: 6.00 Build 0)  -->
<!DOCTYPE svg PUBLIC "-//W3C//DTD SVG 1.1//EN" "http://www.w3.org/Graphics/SVG/1.1/DTD/svg11.dtd">
<svg version="1.1" id="Layer_1" xmlns="http://www.w3.org/2000/svg" xmlns:xlink="http://www.w3.org/1999/xlink" x="0px" y="0px"
	 width="162px" height="78px" viewBox="0 0 162 78" enable-background="new 0 0 162 78" xml:space="preserve">
<defs>
	<linearGradient id="purpleGradient" x1="0%" y1="0%" x2="0%" y2="100%">
		<stop offset="0%" style="stop-color:#3d1a5e;stop-opacity:1" />
		<stop offset="100%" style="stop-color:#220022;stop-opacity:1" />
	</linearGradient>
	<filter id="shadow" x="-50%" y="-50%" width="200%" height="200%">
		<feGaussianBlur in="SourceAlpha" stdDeviation="2"/>
		<feOffset dx="0" dy="2" result="offsetblur"/>
		<feComponentTransfer>
			<feFuncA type="linear" slope="0.3"/>
		</feComponentTransfer>
		<feMerge>
			<feMergeNode/>
			<feMergeNode in="SourceGraphic"/>
		</feMerge>
	</filter>
</defs>
<rect x="5.735" y="16.267" fill-rule="evenodd" clip-rule="evenodd" fill="url(#purpleGradient)" width="62.015" height="49.983" rx="4" ry="4" filter="url(#shadow)"/>
<path fill-rule="evenodd" clip-rule="evenodd" fill="none" d="M4.306,10.754h62.015v49.983H4.306V10.754z"/>
<path fill="#FFFFFF" d="M20.335,28.852l5.71,11.645l-0.081,0.04c-1.658-1.137-4.366-1.561-7.351-0.1
	c-4.759,2.33-6.835,8.293-3.614,14.761c2.904,5.923,8.49,8.136,13.209,5.826c3.186-1.56,4.755-4.377,4.777-7.085l0.081-0.04
	l1.821,3.306l3.186-1.56c-0.773-1.271-1.782-3.225-2.631-4.958l-11.56-23.573L20.335,28.852z M30.353,49.281
	c0.277,0.564,0.474,1.067,0.589,1.61c0.659,2.975-0.748,5.613-3.127,6.778c-3.832,1.875-7.368-0.441-9.304-4.39
	c-2.114-4.312-1.518-8.602,2.153-10.398c2.662-1.303,5.506-0.397,7.137,1.603c0.338,0.384,0.675,0.969,0.893,1.412L30.353,49.281z"
	/>
<path fill="#FFFFFF" d="M46.708,51.418l-1.42-3.302l0.121-0.06c2.717,1.868,5.509,1.851,8.332,0.469
	c4.356-2.132,7.052-7.75,3.634-14.721c-2.865-5.943-8.269-8.294-13.108-5.925c-3.146,1.54-4.713,4.056-4.896,6.844l-0.081,0.04
	l-6.007-12.25l-3.509,1.717l11.559,23.573c0.85,1.732,1.737,3.747,2.309,5.116L46.708,51.418z M41.76,39.799
	c-0.276-0.564-0.393-1.106-0.51-1.549c-0.598-3.055,0.851-5.813,3.271-6.997c3.791-1.856,7.447,0.501,9.364,4.41
	c2.193,4.473,1.458,8.581-2.253,10.397c-2.581,1.264-5.468,0.578-7.359-1.544c-0.278-0.363-0.576-0.767-0.793-1.21L41.76,39.799z"/>
<path fill="#FFFFFF" d="M88.42,27.616h-6.691v-1.734c0-2.082,0.355-3.609,1.066-4.584c0.71-0.974,1.792-1.462,3.246-1.462
	c0.726,0,1.437,0.083,2.131,0.248c0.694,0.166,1.305,0.331,1.833,0.496l1.14-3.419c-0.628-0.231-1.388-0.438-2.28-0.62
	c-0.892-0.181-1.851-0.272-2.875-0.272c-2.743,0-4.865,0.752-6.368,2.255c-1.504,1.504-2.255,3.973-2.255,7.409v1.536l-4.658,1.487
	v2.032h4.658V54.18h4.361V30.986h6.691V27.616z"/>
<path fill="#FFFFFF" d="M97.588,16.515h-4.361V54.18h4.361V16.515z"/>
<path fill="#FFFFFF" d="M106.409,18.323c-0.496,0.446-0.743,1.148-0.743,2.106c0,0.958,0.248,1.66,0.743,2.106
	c0.496,0.446,1.107,0.669,1.834,0.669c0.66,0,1.247-0.223,1.759-0.669c0.512-0.446,0.768-1.148,0.768-2.106
	c0-0.958-0.256-1.66-0.768-2.106c-0.513-0.446-1.099-0.669-1.759-0.669C107.516,17.654,106.905,17.877,106.409,18.323z
	 M106.013,27.616V54.18h4.361V27.616H106.013z"/>
<path fill="#FFFFFF" d="M103.425,65.658h4.95l18.4-21.7l7.3,10.7h5l-9.75-13.7l20.25-24.1h-4.95l-17.85,21.1l-6.9-10.1h-5l9.25,13.1
	L103.425,65.658z"/>
</svg>
